<svg xmlns="http://www.w3.org/2000/svg" width="870.36" height="629.6" viewBox="0 0 870.36 629.6">
  <g id="detalhe-float" transform="translate(870.36) rotate(90)">
    <path id="seta_direito" d="M225.2,105.41,363.14,243.35a101.6,101.6,0,0,1,29.96,72.32V766.4l-83.95,62.47L225.2,766.4V105.41ZM379.1,759.37V315.67a87.666,87.666,0,0,0-25.86-62.42L239.2,139.21V759.37l69.95,52.05,69.95-52.05Z" transform="translate(236.5 41.49)" fill="#ff8500"/>
    <path id="seta_centro" d="M540,105.41l83.95,83.95V913.3L540,975.77,456.05,913.3V189.36Zm69.95,89.75L540,125.21l-69.95,69.95V906.27L540,958.32l69.95-52.05Z" transform="translate(-225.2 -105.41)" fill="#ff8500"/>
    <path id="seta_esquerda" d="M854.8,105.41V766.4l-83.95,62.47L686.9,766.4V315.67a101.6,101.6,0,0,1,29.96-72.32Zm-14,653.96V139.21L726.76,253.25a87.708,87.708,0,0,0-25.86,62.42v443.7l69.95,52.05,69.95-52.05Z" transform="translate(-686.9 41.49)" fill="#ff8500"/>
  </g>
</svg>
