<svg xmlns="http://www.w3.org/2000/svg" width="46.345" height="36.408" viewBox="0 0 46.345 36.408">
  <path id="email-ico" d="M135.745,129.1H102.781a6.7,6.7,0,0,0-6.691,6.691v23.026a6.7,6.7,0,0,0,6.691,6.691h32.963a6.7,6.7,0,0,0,6.691-6.691V135.791a6.7,6.7,0,0,0-6.691-6.691Zm0,3.2a3.463,3.463,0,0,1,.795.095l-13.906,15.779a4.491,4.491,0,0,1-6.739,0l-13.906-15.779a3.463,3.463,0,0,1,.795-.095h32.963Zm3.493,26.519a3.5,3.5,0,0,1-3.493,3.493H102.781a3.5,3.5,0,0,1-3.493-3.493V135.791a3.487,3.487,0,0,1,.262-1.323l13.944,15.821a7.692,7.692,0,0,0,11.539,0l13.944-15.82a3.487,3.487,0,0,1,.262,1.323v23.026Z" transform="translate(-96.09 -129.1)" fill="#fff"/>
</svg>
