<svg xmlns="http://www.w3.org/2000/svg" width="53.606" height="53.603" viewBox="0 0 53.606 53.603">
  <g id="flight" transform="translate(-149.051 -3993.748)">
    <path id="flight-2" data-name="flight" d="M1017.485,670.6c2.115-2.835,3.386-5.779,3.392-7.882a2.928,2.928,0,0,0-.4-1.611,1.5,1.5,0,0,0-.509-.515,2.877,2.877,0,0,0-1.632-.411c-2.1,0-5.043,1.271-7.879,3.391a67.994,67.994,0,0,0-7.759,7.478q-.808.851-1.7,1.79L994.848,671l.018-.018a1.38,1.38,0,0,0,0-1.938l-1.109-1.111a1.384,1.384,0,0,0-.978-.406,1.358,1.358,0,0,0-.969.4l-1.661,1.662-.881-.264a1.377,1.377,0,0,0-.11-1.818l-1.115-1.115a1.382,1.382,0,0,0-.977-.4,1.351,1.351,0,0,0-.969.4l-1.524,1.524-6.251-1.872a1.563,1.563,0,0,0-.447-.063,1.653,1.653,0,0,0-1.155.468l-2.2,2.2a1.289,1.289,0,0,0-.387.907,1.263,1.263,0,0,0,.67,1.131l13.144,7.343a2.291,2.291,0,0,1,.319.242l3.747,3.747c-3.505,3.693-6.628,7.269-9.061,10.38-.227.289-.441.572-.654.85l-10.169-.923a1.393,1.393,0,0,0-.176-.01,1.874,1.874,0,0,0-1.259.521l-1.025,1.023a1.277,1.277,0,0,0-.393.907,1.249,1.249,0,0,0,.739,1.145l7.154,3.4a1.628,1.628,0,0,1,.274.2l.594.589a4.351,4.351,0,0,0-.286,1.375,1.808,1.808,0,0,0,.5,1.322l.026.023.007,0a1.811,1.811,0,0,0,1.315.493,4.37,4.37,0,0,0,1.364-.284l.6.6a1.723,1.723,0,0,1,.187.264l3.391,7.137a1.264,1.264,0,0,0,1.14.75h.007a1.274,1.274,0,0,0,.9-.381l1.05-1.057a1.879,1.879,0,0,0,.5-1.256.919.919,0,0,0,0-.127l-.926-10.2c.279-.21.56-.426.85-.651,3.116-2.437,6.7-5.562,10.379-9.063l3.75,3.754a2.039,2.039,0,0,1,.245.322l7.329,13.121a1.278,1.278,0,0,0,2.046.3l2.213-2.212a1.674,1.674,0,0,0,.453-1.154,1.557,1.557,0,0,0-.061-.433l-1.872-6.251,1.523-1.527a1.377,1.377,0,0,0,0-1.943l-1.117-1.116a1.374,1.374,0,0,0-1.817-.114l-.264-.877,1.663-1.662a1.39,1.39,0,0,0,.4-.975,1.357,1.357,0,0,0-.4-.969l-1.112-1.112a1.377,1.377,0,0,0-1.953,0l-.011.01-1.841-6.147q.953-.909,1.817-1.727A66.962,66.962,0,0,0,1017.485,670.6Z" transform="translate(-819.223 3334.57)" fill="none" stroke="#fff" stroke-width="2"/>
  </g>
</svg>
