<svg xmlns="http://www.w3.org/2000/svg" width="49.042" height="49.152" viewBox="0 0 49.042 49.152">
  <g id="house" transform="translate(-151.935 -3825.825)">
    <path id="house-2" data-name="house" d="M57.982,21.183,35.551.458a1.737,1.737,0,0,0-2.349,0L10.773,21.182a1.585,1.585,0,0,0-.517,1.164,1.656,1.656,0,0,0,1.691,1.618h2.981V46.624a1.656,1.656,0,0,0,1.691,1.618H28.458a1.656,1.656,0,0,0,1.691-1.618V33.676H38.6V46.624A1.656,1.656,0,0,0,40.3,48.242H52.134a1.656,1.656,0,0,0,1.691-1.618V23.965h2.981a1.729,1.729,0,0,0,1.216-.494A1.57,1.57,0,0,0,57.982,21.183Zm-4.156,1.164a1.656,1.656,0,0,0-1.691,1.618V46.624H40.3V33.676A1.656,1.656,0,0,0,38.6,32.057H30.149a1.656,1.656,0,0,0-1.691,1.618V46.624H16.619V23.965a1.656,1.656,0,0,0-1.691-1.618H11.947L34.377,1.622,56.815,22.347H53.826Z" transform="translate(142.079 3826.335)" fill="#fff" stroke="#fff" stroke-width="0.8"/>
  </g>
</svg>
