<svg xmlns="http://www.w3.org/2000/svg" width="41.773" height="41.682" viewBox="0 0 41.773 41.682">
  <g id="in-ico" transform="translate(-416 -951.887)">
    <path id="in-n" d="M209.9,200.1h8.291v3.8h.122a9.083,9.083,0,0,1,8.184-4.5c8.762,0,10.39,5.766,10.39,13.265v15.273h-8.656V214.4c0-3.225-.061-7.378-4.5-7.378-4.5,0-5.187,3.514-5.187,7.15v13.767H209.9Z" transform="translate(220.886 765.631)" fill="#fff"/>
    <path id="in-i" d="M113.385,126.843h8.671v27.839h-8.671ZM117.72,113a5.02,5.02,0,1,1-5.02,5.02,5.025,5.025,0,0,1,5.02-5.02" transform="translate(303.3 838.887)" fill="#fff"/>
  </g>
</svg>
