<svg xmlns="http://www.w3.org/2000/svg" width="43.371" height="43.056" viewBox="0 0 43.371 43.056">
  <g id="meet" transform="translate(-154.814 -3658.971)">
    <path id="meet-07" d="M98.1,18.316A8.619,8.619,0,1,0,89.48,9.7,8.628,8.628,0,0,0,98.1,18.316Zm0-14.7A6.082,6.082,0,1,1,92.017,9.7,6.088,6.088,0,0,1,98.1,3.615Z" transform="translate(78.401 3657.894)" fill="#fff"/>
    <path id="meet-06" d="M120.628,43.353a1.269,1.269,0,0,0,1.794,0l4.218-4.218a1.269,1.269,0,1,0-1.794-1.794l-3.321,3.321-1.212-1.212a1.269,1.269,0,0,0-1.794,1.794Z" transform="translate(53.921 3627.244)" fill="#fff"/>
    <path id="meet-05" d="M5.161,27.754A5.162,5.162,0,1,0,0,22.593,5.168,5.168,0,0,0,5.161,27.754Zm0-7.786a2.625,2.625,0,1,1-2.624,2.625A2.628,2.628,0,0,1,5.161,19.968Z" transform="translate(154.814 3643.929)" fill="#fff"/>
    <path id="meet-04" d="M16.793,113.944H12.682v-7.525a4.675,4.675,0,1,0-9.35,0v10.435a4.493,4.493,0,0,0,4.488,4.488h5.334v7.35a1.269,1.269,0,0,0,1.269,1.269h4.925a1.269,1.269,0,0,0,1.269-1.269V117.768A3.828,3.828,0,0,0,16.793,113.944Zm1.287,13.48H15.692v-7.35a1.269,1.269,0,0,0-1.269-1.269h-6.6a1.954,1.954,0,0,1-1.951-1.951V106.419a2.138,2.138,0,1,1,4.276,0v8.793a1.269,1.269,0,0,0,1.269,1.269h5.379a1.288,1.288,0,0,1,1.287,1.287v9.657Z" transform="translate(151.969 3571.928)" fill="#fff"/>
    <path id="meet-03" d="M231.471,27.754a5.162,5.162,0,1,0-5.162-5.162A5.167,5.167,0,0,0,231.471,27.754Zm0-7.786a2.625,2.625,0,1,1-2.625,2.625A2.628,2.628,0,0,1,231.471,19.968Z" transform="translate(-38.446 3643.929)" fill="#fff"/>
    <path id="meet-02" d="M187.915,101.744a4.68,4.68,0,0,0-4.675,4.675v7.525H179.13a3.828,3.828,0,0,0-3.824,3.824v10.925a1.269,1.269,0,0,0,1.269,1.269H181.5a1.269,1.269,0,0,0,1.269-1.269v-7.35H188.1a4.493,4.493,0,0,0,4.488-4.488V106.419a4.68,4.68,0,0,0-4.675-4.675Zm2.138,15.11a1.954,1.954,0,0,1-1.951,1.951h-6.6a1.269,1.269,0,0,0-1.269,1.269v7.35h-2.388v-9.657a1.288,1.288,0,0,1,1.287-1.287h5.379a1.269,1.269,0,0,0,1.269-1.269v-8.793a2.138,2.138,0,1,1,4.276,0v10.435Z" transform="translate(5.109 3571.928)" fill="#fff"/>
    <path id="meet-01" d="M105.268,138.006a1.269,1.269,0,0,0,0-2.537H90.494a1.269,1.269,0,1,0,0,2.537h6.119v19.625a1.269,1.269,0,0,0,2.537,0V138.006Z" transform="translate(78.619 3543.128)" fill="#fff"/>
  </g>
</svg>
