<svg xmlns="http://www.w3.org/2000/svg" width="61.156" height="61.156" viewBox="0 0 61.156 61.156">
  <g id="pe-pin" transform="translate(-25.88 -25.87)">
    <path id="Caminho_3181" data-name="Caminho 3181" d="M146.549,115.971c-2.722-.918-5.44-1.843-8.222-2.791v16.864c0,.19-.091.411.278.411q3.946-.023,7.9,0c.23,0,.281-.072.281-.29q-.009-6.923,0-13.847a.3.3,0,0,0-.233-.344Z" transform="translate(-78.474 -60.937)" fill="#ff4e00"/>
    <path id="Caminho_3182" data-name="Caminho 3182" d="M99.716,85.733c-.124.042-.2.066-.272.094q-5.6,2.08-11.195,4.147a.489.489,0,0,0-.39.556q.014,10.254,0,20.51c0,.353.088.432.435.432q5.5-.023,10.989,0c.381,0,.441-.118.441-.459q-.014-12.419-.006-24.836V85.73Z" transform="translate(-43.258 -41.778)" fill="#ff4e00"/>
    <path id="Caminho_3183" data-name="Caminho 3183" d="M64.833,37.87A26.953,26.953,0,1,0,91.786,64.823,26.984,26.984,0,0,0,64.833,37.87ZM83.078,81.615q-9.125-.014-18.251-.006c-6.084,0-12.116,0-18.172.006-.344,0-.477-.06-.462-.444.033-.858.027-1.719,0-2.58-.009-.311.094-.372.381-.366.873.018,1.746-.009,2.619.015.329.009.411-.079.411-.408Q49.59,66.9,49.594,55.97a1.746,1.746,0,0,1,1.441-2.048L66.875,48.2c.1-.036.2-.076.3-.106.652-.2,1.054.094,1.054.788,0,2.7.009,5.4-.009,8.1,0,.344.115.462.423.565q5.1,1.681,10.192,3.4a1.631,1.631,0,0,1,1.238,1.716c0,5.054.006,10.1-.009,15.158,0,.347.076.444.429.432.873-.03,1.746.006,2.619-.018.317-.009.365.1.362.384-.018.873-.021,1.746,0,2.619.009.326-.1.387-.4.387Z" transform="translate(-8.375 -8.375)" fill="#ff4e00"/>
    <path id="Caminho_3184" data-name="Caminho 3184" d="M102.678,102.1c.006-.281-.045-.393-.362-.384-.873.024-1.746-.012-2.619.018-.353.012-.429-.085-.429-.432q.018-7.58.009-15.158a1.631,1.631,0,0,0-1.238-1.716q-5.093-1.7-10.192-3.4c-.308-.1-.426-.224-.423-.565.018-2.7.009-5.4.009-8.1,0-.695-.4-.991-1.054-.788-.1.03-.2.072-.3.106q-7.92,2.859-15.84,5.718A1.749,1.749,0,0,0,68.8,79.457q0,10.933.009,21.863c0,.329-.082.417-.411.408-.873-.024-1.746,0-2.619-.015-.287-.006-.39.054-.381.365.024.858.03,1.719,0,2.58-.015.384.118.444.462.444q9.085-.014,18.172-.006c6.056,0,12.167,0,18.251.006.3,0,.408-.06.4-.387-.024-.873-.018-1.746,0-2.619Zm-19.072-.538q-5.5-.027-10.989,0c-.347,0-.435-.079-.435-.432q.018-10.254,0-20.51a.487.487,0,0,1,.39-.556q5.6-2.057,11.194-4.147c.072-.027.148-.051.272-.094v.447q0,12.419.006,24.836c0,.341-.06.462-.441.459Zm12-.181q-3.946-.014-7.9,0c-.369,0-.278-.217-.278-.411V84.106c2.785.945,5.5,1.873,8.222,2.791a.3.3,0,0,1,.233.344q-.009,6.923,0,13.847c0,.217-.051.29-.281.29Z" transform="translate(-27.58 -31.863)" fill="#051842"/>
    <path id="Caminho_3185" data-name="Caminho 3185" d="M56.458,25.87A30.578,30.578,0,1,0,87.036,56.448,30.612,30.612,0,0,0,56.458,25.87Zm0,57.534A26.955,26.955,0,1,1,83.411,56.448,26.984,26.984,0,0,1,56.458,83.4Z" transform="translate(0)" fill="#051842"/>
  </g>
</svg>
