<svg xmlns="http://www.w3.org/2000/svg" width="42.004" height="42.004" viewBox="0 0 42.004 42.004">
  <g id="rs-pin" transform="translate(-25.88 -25.87)">
    <path id="Caminho_3181" data-name="Caminho 3181" d="M143.971,115.1c-1.869-.631-3.737-1.266-5.647-1.917v11.583c0,.131-.062.282.191.282q2.711-.016,5.423,0c.158,0,.193-.05.193-.2q-.006-4.755,0-9.51a.208.208,0,0,0-.16-.237Z" transform="translate(-89.11 -69.196)" fill="#ff8500"/>
    <path id="Caminho_3182" data-name="Caminho 3182" d="M96,85.732c-.085.029-.137.046-.187.064q-3.843,1.428-7.689,2.849a.336.336,0,0,0-.268.382q.009,7.043,0,14.087c0,.243.06.3.3.3q3.775-.016,7.548,0c.261,0,.3-.081.3-.315q-.009-8.53,0-17.058V85.73Z" transform="translate(-49.121 -47.441)" fill="#ff8500"/>
    <path id="Caminho_3183" data-name="Caminho 3183" d="M56.392,37.87A18.512,18.512,0,1,0,74.9,56.382,18.534,18.534,0,0,0,56.392,37.87ZM68.923,67.916q-6.268-.009-12.535,0c-4.178,0-8.322,0-12.481,0-.237,0-.328-.041-.317-.3.023-.589.019-1.18,0-1.772-.006-.214.064-.255.261-.251.6.012,1.2-.006,1.8.01.226.006.282-.054.282-.28q-.009-7.509-.006-15.017a1.2,1.2,0,0,1,.99-1.407l10.88-3.927c.068-.025.135-.052.205-.073.448-.139.724.064.724.541,0,1.853.006,3.707-.006,5.56,0,.237.079.317.29.388q3.5,1.155,7,2.332a1.12,1.12,0,0,1,.851,1.178c0,3.471,0,6.94-.006,10.411,0,.239.052.3.295.3.6-.021,1.2,0,1.8-.012.218-.006.251.071.249.263-.012.6-.015,1.2,0,1.8.006.224-.066.266-.274.266Z" transform="translate(-9.51 -9.51)" fill="#ff8500"/>
    <path id="Caminho_3184" data-name="Caminho 3184" d="M91,92.524c0-.193-.031-.27-.249-.263-.6.017-1.2-.008-1.8.012-.243.008-.295-.058-.295-.3q.012-5.206.006-10.411a1.12,1.12,0,0,0-.851-1.178q-3.5-1.17-7-2.332c-.212-.071-.293-.154-.29-.388.012-1.853.006-3.707.006-5.56,0-.477-.276-.681-.724-.541-.068.021-.137.05-.205.073q-5.44,1.964-10.88,3.927a1.2,1.2,0,0,0-.99,1.407q0,7.509.006,15.017c0,.226-.056.286-.282.28-.6-.017-1.2,0-1.8-.01-.2,0-.268.037-.261.251.017.589.021,1.18,0,1.772-.01.263.081.3.317.3q6.24-.009,12.481,0c4.16,0,8.357,0,12.535,0,.207,0,.28-.041.274-.266-.017-.6-.012-1.2,0-1.8Zm-13.1-.369q-3.775-.019-7.548,0c-.239,0-.3-.054-.3-.3q.012-7.043,0-14.087a.335.335,0,0,1,.268-.382q3.846-1.413,7.689-2.849c.05-.019.1-.035.187-.064v.307q0,8.53,0,17.058c0,.234-.041.317-.3.315Zm8.243-.124q-2.711-.009-5.423,0c-.253,0-.191-.149-.191-.282V80.166c1.913.649,3.78,1.286,5.647,1.917a.2.2,0,0,1,.16.237q-.006,4.755,0,9.51c0,.149-.035.2-.193.2Z" transform="translate(-31.318 -36.182)" fill="#051842"/>
    <path id="Caminho_3185" data-name="Caminho 3185" d="M46.882,25.87a21,21,0,1,0,21,21A21.025,21.025,0,0,0,46.882,25.87Zm0,39.516A18.513,18.513,0,1,1,65.394,46.872,18.534,18.534,0,0,1,46.882,65.386Z" fill="#051842"/>
  </g>
</svg>
