<svg xmlns="http://www.w3.org/2000/svg" width="399.214" height="159.123" viewBox="0 0 399.214 159.123">
  <g id="tec-logo" transform="translate(-140 -93)">
    <g id="logistics-company" transform="translate(0 -1228.475)">
      <path id="y" d="M1007.6,372.2l-6.639-15.822h5.736l3.706,9.021,3.706-9.021h5.736l-10.086,24.008h-5.509Z" transform="translate(-481.848 1100.21)" fill="#fff"/>
      <path id="n" d="M957.52,355.862h5.156v1.612a5.2,5.2,0,0,1,4.415-1.965c5.027,0,7.218,3.966,7.218,8.539V372.2h-5.189v-8.154c0-1.932-1-3.674-3.192-3.674-1.9,0-3.253,1.32-3.253,3.739V372.2H957.52V355.866Z" transform="translate(-456.003 1100.728)" fill="#fff"/>
      <path id="a" d="M906.37,364.049c0-4.61,3.192-8.539,8.154-8.539a7.472,7.472,0,0,1,4.512,1.45v-1.094h5.156V372.2h-5.156v-1.065a7.463,7.463,0,0,1-4.512,1.45c-4.962,0-8.154-3.966-8.154-8.539Zm8.733,3.544a3.56,3.56,0,1,0-3.544-3.544A3.535,3.535,0,0,0,915.1,367.593Z" transform="translate(-425.572 1100.728)" fill="#fff"/>
      <path id="p" d="M858.4,355.857h5.156v1.094a7.534,7.534,0,0,1,4.512-1.45c4.962,0,8.154,3.933,8.154,8.539s-3.192,8.539-8.154,8.539a7.544,7.544,0,0,1-4.512-1.45v8.733H858.4V355.852Zm9.085,11.73a3.56,3.56,0,1,0-3.544-3.544A3.563,3.563,0,0,0,867.485,367.587Z" transform="translate(-397.033 1100.734)" fill="#fff"/>
      <path id="m" d="M783.208,355.857H788.4v1.385a5,5,0,0,1,4.091-1.742,6.309,6.309,0,0,1,5.476,2.609,6.572,6.572,0,0,1,5.444-2.609c5.027,0,7.348,3.965,7.348,8.539v8.154H805.6v-8.154c0-1.932-.968-3.674-3.062-3.674-1.807,0-2.965,1.32-2.965,3.739v8.089h-5.156v-8.154c0-1.932-.968-3.674-3.062-3.674-1.807,0-2.965,1.32-2.965,3.739v8.089H783.2V355.857Z" transform="translate(-352.293 1100.734)" fill="#fff"/>
      <path id="o" d="M734.53,364.049a8.735,8.735,0,1,1,8.733,8.539A8.6,8.6,0,0,1,734.53,364.049Zm8.733,3.544a3.56,3.56,0,1,0-3.544-3.544A3.535,3.535,0,0,0,743.263,367.593Z" transform="translate(-323.337 1100.728)" fill="#fff"/>
      <path id="c" d="M678.52,351.736a11.733,11.733,0,0,1,21.427-6.542l-4.768,3.192a5.929,5.929,0,1,0,.13,6.513l4.768,3.192a11.733,11.733,0,0,1-21.557-6.347Z" transform="translate(-290.014 1109.914)" fill="#fff"/>
      <path id="s" d="M622.034,367.88l5.124-.936c0,.741.677,1.612,2.224,1.612.9,0,1.515-.417,1.515-1.094s-.514-.838-3.159-1.418c-2.673-.579-4.93-1.742-4.93-5.124,0-3.577,3.159-5.412,6.153-5.412s5.541,1.45,6.218,4.091l-4.383,1.033a1.61,1.61,0,0,0-1.709-1.094c-.806,0-1.418.385-1.418,1,0,.774.676.936,2.738,1.418,2.576.612,5.638,1.385,5.638,5.092,0,3.961-3.285,5.541-6.926,5.541s-6.639-1.353-7.089-4.7Z" transform="translate(-256.406 1100.728)" fill="#fff"/>
      <path id="c-2" data-name="c" d="M578.21,364.049a8.756,8.756,0,0,1,16.466-3.929l-4.61,2.256a3.557,3.557,0,0,0-6.7,1.677,3.535,3.535,0,0,0,3.544,3.544,3.582,3.582,0,0,0,3.159-1.9l4.61,2.256a8.688,8.688,0,0,1-7.765,4.642,8.571,8.571,0,0,1-8.7-8.539Z" transform="translate(-230.335 1100.728)" fill="#fff"/>
      <path id="i" d="M561.955,337.68a2.819,2.819,0,0,1,0,5.638,2.838,2.838,0,0,1-2.835-2.835A2.791,2.791,0,0,1,561.955,337.68Zm-2.609,7.57h5.189v16.336h-5.189Z" transform="translate(-218.978 1111.336)" fill="#fff"/>
      <path id="t" d="M523.843,361.312v-5.671H521.17v-4.61h2.673V347.39H529v3.641h4.415v4.61H529v5.671a1.327,1.327,0,0,0,1.418,1.45,2.076,2.076,0,0,0,1.58-.806l2.933,3.415a6.614,6.614,0,0,1-5.092,2.256C525.391,367.627,523.843,365.208,523.843,361.312Z" transform="translate(-196.4 1105.559)" fill="#fff"/>
      <path id="s-2" data-name="s" d="M484.964,367.88l5.124-.936c0,.741.676,1.612,2.224,1.612.9,0,1.515-.417,1.515-1.094s-.514-.838-3.159-1.418c-2.673-.579-4.93-1.742-4.93-5.124,0-3.577,3.159-5.412,6.153-5.412s5.541,1.45,6.218,4.091l-4.383,1.033a1.61,1.61,0,0,0-1.709-1.094c-.806,0-1.418.385-1.418,1,0,.774.676.936,2.738,1.418,2.576.612,5.638,1.385,5.638,5.092,0,3.961-3.285,5.541-6.926,5.541s-6.639-1.353-7.089-4.7Z" transform="translate(-174.857 1100.728)" fill="#fff"/>
      <path id="i-2" data-name="i" d="M469.905,337.68a2.819,2.819,0,0,1,0,5.638,2.838,2.838,0,0,1-2.835-2.835A2.791,2.791,0,0,1,469.905,337.68Zm-2.609,7.57h5.189v16.336H467.3Z" transform="translate(-164.213 1111.336)" fill="#fff"/>
      <path id="g" d="M417.181,375.52l4.188-2.127a4.328,4.328,0,0,0,3.868,1.774c2.386,0,3.706-1.385,3.706-3.8v-.45a7.542,7.542,0,0,1-4.48,1.385,7.912,7.912,0,0,1-8.154-8.251c0-4.577,3.192-8.539,8.154-8.539a7.374,7.374,0,0,1,4.48,1.45v-1.094h5.189v15.5c0,5.124-3.674,8.506-8.895,8.506C421.855,379.87,418.534,378.388,417.181,375.52Zm7.862-7.927a3.56,3.56,0,0,0,0-7.121,3.56,3.56,0,1,0,0,7.121Z" transform="translate(-134.014 1100.728)" fill="#fff"/>
      <path id="o-2" data-name="o" d="M369.22,364.049a8.735,8.735,0,1,1,8.733,8.539A8.6,8.6,0,0,1,369.22,364.049Zm8.733,3.544a3.56,3.56,0,1,0-3.544-3.544A3.535,3.535,0,0,0,377.953,367.593Z" transform="translate(-105.998 1100.728)" fill="#fff"/>
      <path id="l" d="M328.49,341.024h5.736v17.11h8.668v5.444h-14.4V341.02Z" transform="translate(-81.766 1109.349)" fill="#fff"/>
    </g>
    <g id="tec-logo-type" transform="translate(247.045 93)">
      <path id="C-3" data-name="C" d="M883.008,132.295a61.021,61.021,0,0,1-16.534,9.425,56.261,56.261,0,0,1-20.028,3.372,58.4,58.4,0,0,1-22.668-4.387A54.957,54.957,0,0,1,805.5,128.476a58.258,58.258,0,0,1-12.228-18.443A59.15,59.15,0,0,1,788.8,86.958a59.854,59.854,0,0,1,4.387-23.075,56.838,56.838,0,0,1,12.228-18.525,56.132,56.132,0,0,1,18.606-12.39,60.78,60.78,0,0,1,23.4-4.469A56.747,56.747,0,0,1,866.6,31.466a57.382,57.382,0,0,1,14.99,7.922V62.868a47.429,47.429,0,0,0-13.812-10.237c-5.362-2.641-11.822-3.981-19.378-3.981a36.045,36.045,0,0,0-26.65,11.172,35.052,35.052,0,0,0-7.353,12.065,44.35,44.35,0,0,0,0,29.7,35.8,35.8,0,0,0,7.353,12.147,34.1,34.1,0,0,0,11.578,8.125A36.965,36.965,0,0,0,848.4,124.82a40.913,40.913,0,0,0,9.912-1.178,44.515,44.515,0,0,0,8.856-3.291,54.341,54.341,0,0,0,8.125-4.956,99.025,99.025,0,0,0,7.759-6.378v23.278Z" transform="translate(-590.879 -28.175)" fill="#fff"/>
      <path id="_" data-name="&amp;" d="M630.673,87.661c-2.437,4.794-5.078,9.709-7.922,14.706s-5.687,9.587-8.572,13.772l20.637,22.871-21.45,4.469-12.106-12.8a57.344,57.344,0,0,1-15.437,10.237,45.093,45.093,0,0,1-18.484,3.7,47.513,47.513,0,0,1-14.869-2.234,36.572,36.572,0,0,1-11.984-6.459,29.744,29.744,0,0,1-8-10.319A31.525,31.525,0,0,1,529.6,112q0-11.517,6.378-19.662c4.266-5.444,10.441-9.79,18.565-13.122a48.717,48.717,0,0,1-6.866-11.578,31.8,31.8,0,0,1-2.4-12.065A26.03,26.03,0,0,1,547.6,44.6a27.046,27.046,0,0,1,6.459-8.815,30.491,30.491,0,0,1,9.993-5.931A37.237,37.237,0,0,1,576.927,27.7a34.917,34.917,0,0,1,12.39,2.072,29.178,29.178,0,0,1,9.506,5.687A24.979,24.979,0,0,1,605,43.95a25.872,25.872,0,0,1,2.153,10.481c0,6.947-2.153,12.715-6.459,17.347a50.723,50.723,0,0,1-17.022,11.578l18.565,19.987c2.234-3.291,4.306-6.7,6.256-10.156q2.864-5.18,5.606-10.969ZM566.04,92.292a28.4,28.4,0,0,0-10.4,8,17.189,17.189,0,0,0-3.534,10.725,16.468,16.468,0,0,0,1.259,6.54,15.892,15.892,0,0,0,3.615,5.281,16.491,16.491,0,0,0,5.606,3.534,19.8,19.8,0,0,0,7.272,1.259,20.679,20.679,0,0,0,10.481-2.8,40.183,40.183,0,0,0,9.019-7.109ZM568.315,47.2a11.911,11.911,0,0,0-3.372,8.815,16.291,16.291,0,0,0,2.072,7.84,53.679,53.679,0,0,0,5.931,8.49,35.552,35.552,0,0,0,11.294-7.353,13.361,13.361,0,0,0,4.225-9.587A10.984,10.984,0,0,0,585.093,47a11.774,11.774,0,0,0-8.328-3.128A11.264,11.264,0,0,0,568.315,47.2Z" transform="translate(-436.977 -27.7)" fill="#fff"/>
      <path id="T-2" data-name="T" d="M327.924,28.6h-9.059L301.6,49.034h34.612v96.117h23.075V49.034h34.856V28.6Z" transform="translate(-301.6 -28.234)" fill="#fff"/>
    </g>
    <g id="tec-logo-symbol" transform="translate(140 93)">
      <path id="seta_direito" d="M204.662,27.7,194.1,35.54v15.4h0v40.99h0v31.565l17.306-17.306a13.094,13.094,0,0,0,3.819-9.262V91.886h0V50.937h0V35.54Z" transform="translate(-130.726 -27.7)" fill="#fff"/>
      <path id="seta_centro" d="M116.1,35.54v15.4h0V91.886h0v42.168l10.562,10.562,5.037-5.037,5.525-5.525V91.886h0V50.937h0V35.54L126.662,27.7Z" transform="translate(-84.413 -27.7)" fill="#fff"/>
      <path id="seta_esquerda" d="M38.1,35.54V96.964a13.238,13.238,0,0,0,3.819,9.262l17.306,17.306V35.54L48.662,27.7Z" transform="translate(-38.1 -27.7)" fill="#fff"/>
    </g>
  </g>
</svg>
