<svg xmlns="http://www.w3.org/2000/svg" width="295.671" height="59.972" viewBox="0 0 295.671 59.972">
  <g id="tec-logo" transform="translate(-140 -93)">
    <g id="tec-logo-subtype" transform="translate(355.132 106.628)">
      <g id="company" transform="translate(0 21.359)">
        <path id="y" d="M1411.784,221.223,1408.2,212.7h3.084l2,4.855,2-4.855h3.084l-5.439,12.94h-2.959Z" transform="translate(-1337.83 -209.137)" fill="#ff8500"/>
        <path id="n" d="M1362.7,211.988h2.771v.875a2.838,2.838,0,0,1,2.375-1.063c2.709,0,3.9,2.125,3.9,4.605v4.4h-2.792v-4.4a1.751,1.751,0,0,0-1.709-1.98c-1.021,0-1.75.708-1.75,2.021V220.8h-2.771v-8.814Z" transform="translate(-1301.811 -208.424)" fill="#ff8500"/>
        <path id="a" d="M1309.1,216.405a4.381,4.381,0,0,1,4.4-4.605,3.973,3.973,0,0,1,2.438.792v-.583h2.771V220.8h-2.771v-.583a4.109,4.109,0,0,1-2.438.792A4.406,4.406,0,0,1,1309.1,216.405Zm4.709,1.9a1.917,1.917,0,1,0-1.917-1.917A1.912,1.912,0,0,0,1313.809,218.3Z" transform="translate(-1259.381 -208.424)" fill="#ff8500"/>
        <path id="p" d="M1258.9,211.908h2.771v.583a4.158,4.158,0,0,1,2.438-.792,4.61,4.61,0,0,1,0,9.21,4.018,4.018,0,0,1-2.438-.792v4.709H1258.9Zm4.9,6.314a1.917,1.917,0,1,0,0-3.834,1.917,1.917,0,0,0,0,3.834Z" transform="translate(-1219.641 -208.345)" fill="#ff8500"/>
        <path id="m" d="M1180.2,211.988h2.792v.75a2.688,2.688,0,0,1,2.209-.938,3.455,3.455,0,0,1,2.959,1.4,3.552,3.552,0,0,1,2.938-1.4c2.709,0,3.959,2.125,3.959,4.605v4.4h-2.771v-4.4c0-1.042-.521-1.98-1.646-1.98-.979,0-1.6.708-1.6,2.021V220.8h-2.771v-4.4c0-1.042-.521-1.98-1.646-1.98-.979,0-1.6.708-1.6,2.021V220.8h-2.792v-8.814Z" transform="translate(-1157.341 -208.424)" fill="#ff8500"/>
        <path id="o" d="M1129.2,216.405a4.711,4.711,0,1,1,4.709,4.605A4.643,4.643,0,0,1,1129.2,216.405Zm4.689,1.9a1.917,1.917,0,1,0-1.917-1.917A1.939,1.939,0,0,0,1133.889,218.3Z" transform="translate(-1116.968 -208.424)" fill="#ff8500"/>
        <path id="c" d="M1070.5,201.893a6.326,6.326,0,0,1,11.544-3.542l-2.563,1.709a3.256,3.256,0,0,0-2.646-1.4,3.188,3.188,0,1,0,0,6.376,3.259,3.259,0,0,0,2.73-1.5l2.563,1.709a6.349,6.349,0,0,1-5.293,2.855A6.187,6.187,0,0,1,1070.5,201.893Z" transform="translate(-1070.5 -195.6)" fill="#ff8500"/>
      </g>
      <g id="logistics" transform="translate(0.521)">
        <path id="s" d="M1380.5,118.547l2.751-.5c0,.4.375.875,1.188.875.479,0,.813-.229.813-.583,0-.375-.271-.458-1.709-.771s-2.667-.938-2.667-2.751a3.068,3.068,0,0,1,3.313-2.917,3.2,3.2,0,0,1,3.355,2.209l-2.355.563a.848.848,0,0,0-.917-.583c-.438,0-.771.208-.771.542,0,.417.375.5,1.48.771,1.4.333,3.042.75,3.042,2.751,0,2.125-1.771,2.98-3.73,2.98S1380.729,120.36,1380.5,118.547Z" transform="translate(-1316.423 -107.982)" fill="#ff8500"/>
        <path id="c-2" data-name="c" d="M1334.6,116.405a4.625,4.625,0,0,1,4.688-4.605,4.675,4.675,0,0,1,4.188,2.48l-2.48,1.209a1.917,1.917,0,1,0,0,1.792l2.48,1.209a4.669,4.669,0,0,1-4.188,2.5A4.582,4.582,0,0,1,1334.6,116.405Z" transform="translate(-1280.088 -107.903)" fill="#ff8500"/>
        <path id="i" d="M1316.121,93.1a1.511,1.511,0,1,1-1.521,1.5A1.512,1.512,0,0,1,1316.121,93.1Zm-1.417,4.084h2.792V106H1314.7Z" transform="translate(-1264.255 -93.1)" fill="#ff8500"/>
        <path id="t" d="M1276.238,110.8v-3.063H1274.8v-2.48h1.438V103.3h2.771v1.959h2.375v2.48h-2.375V110.8a.711.711,0,0,0,.771.771,1.186,1.186,0,0,0,.854-.438l1.584,1.834a3.533,3.533,0,0,1-2.751,1.209C1277.071,114.2,1276.238,112.906,1276.238,110.8Z" transform="translate(-1232.749 -101.174)" fill="#ff8500"/>
        <path id="s-2" data-name="s" d="M1236.9,118.547l2.75-.5c0,.4.375.875,1.188.875.479,0,.813-.229.813-.583,0-.375-.271-.458-1.709-.771s-2.667-.938-2.667-2.751a3.068,3.068,0,0,1,3.313-2.917,3.2,3.2,0,0,1,3.355,2.209l-2.355.563a.848.848,0,0,0-.917-.583c-.438,0-.771.208-.771.542,0,.417.375.5,1.479.771,1.4.333,3.042.75,3.042,2.751,0,2.125-1.771,2.98-3.73,2.98S1237.15,120.36,1236.9,118.547Z" transform="translate(-1202.747 -107.982)" fill="#ff8500"/>
        <path id="i-2" data-name="i" d="M1219.721,93.1a1.511,1.511,0,1,1-1.521,1.5A1.512,1.512,0,0,1,1219.721,93.1Zm-1.417,4.084h2.792V106H1218.3Z" transform="translate(-1187.943 -93.1)" fill="#ff8500"/>
        <path id="g" d="M1165.379,122.573l2.25-1.146a2.332,2.332,0,0,0,2.084.959,1.833,1.833,0,0,0,2-2.042v-.25a4.163,4.163,0,0,1-2.417.75,4.268,4.268,0,0,1-4.4-4.439,4.381,4.381,0,0,1,4.4-4.605,3.911,3.911,0,0,1,2.417.792v-.583h2.792v8.356a4.465,4.465,0,0,1-4.793,4.584A4.7,4.7,0,0,1,1165.379,122.573Zm4.251-4.272a1.917,1.917,0,1,0-1.917-1.917A1.912,1.912,0,0,0,1169.63,118.3Z" transform="translate(-1145.75 -107.903)" fill="#ff8500"/>
        <path id="o-2" data-name="o" d="M1115.7,116.405a4.711,4.711,0,1,1,4.709,4.605A4.643,4.643,0,0,1,1115.7,116.405Zm4.709,1.9a1.917,1.917,0,1,0-1.917-1.917A1.912,1.912,0,0,0,1120.409,118.3Z" transform="translate(-1106.802 -107.903)" fill="#ff8500"/>
        <path id="l" d="M1073,96.6h3.084v9.21h4.668v2.959H1073Z" transform="translate(-1073 -95.871)" fill="#ff8500"/>
      </g>
    </g>
    <g id="tec-logo-type" transform="translate(194.908 93)">
      <path id="C-3" data-name="C" d="M837.123,81.741a31.3,31.3,0,0,1-8.481,4.834,28.859,28.859,0,0,1-10.273,1.73,29.956,29.956,0,0,1-11.628-2.251,28.189,28.189,0,0,1-9.377-6.272,29.884,29.884,0,0,1-6.272-9.46A30.341,30.341,0,0,1,788.8,58.486a30.7,30.7,0,0,1,2.25-11.836,29.155,29.155,0,0,1,6.272-9.5,28.793,28.793,0,0,1,9.544-6.356,31.177,31.177,0,0,1,12-2.292,29.108,29.108,0,0,1,9.836,1.521,29.435,29.435,0,0,1,7.689,4.063V46.129a24.328,24.328,0,0,0-7.085-5.251,22.308,22.308,0,0,0-9.94-2.042,18.489,18.489,0,0,0-13.67,5.73,17.98,17.98,0,0,0-3.772,6.189,22.749,22.749,0,0,0,0,15.233,18.362,18.362,0,0,0,3.772,6.231,17.49,17.49,0,0,0,5.939,4.168,18.961,18.961,0,0,0,7.731,1.521,20.986,20.986,0,0,0,5.084-.6A22.833,22.833,0,0,0,829,75.615a27.875,27.875,0,0,0,4.168-2.542,50.8,50.8,0,0,0,3.98-3.272v11.94Z" transform="translate(-687.277 -28.333)" fill="#fff"/>
      <path id="_" data-name="&amp;" d="M581.445,58.457c-1.25,2.459-2.6,4.98-4.063,7.543s-2.917,4.918-4.4,7.064L583.57,84.8l-11,2.292-6.21-6.564a29.414,29.414,0,0,1-7.918,5.251,23.13,23.13,0,0,1-9.481,1.9,24.371,24.371,0,0,1-7.627-1.146,18.76,18.76,0,0,1-6.147-3.313,15.257,15.257,0,0,1-4.105-5.293,16.171,16.171,0,0,1-1.479-6.981,15.835,15.835,0,0,1,3.272-10.086,22.65,22.65,0,0,1,9.523-6.731,24.99,24.99,0,0,1-3.522-5.939,16.309,16.309,0,0,1-1.229-6.189,13.352,13.352,0,0,1,1.188-5.626,13.873,13.873,0,0,1,3.313-4.522,15.64,15.64,0,0,1,5.126-3.042,19.1,19.1,0,0,1,6.606-1.1,17.91,17.91,0,0,1,6.356,1.063,14.967,14.967,0,0,1,4.876,2.917,12.813,12.813,0,0,1,3.167,4.355,13.271,13.271,0,0,1,1.1,5.376,12.553,12.553,0,0,1-3.313,8.9,26.018,26.018,0,0,1-8.731,5.939L566.858,66.5c1.146-1.688,2.209-3.438,3.209-5.209q1.469-2.657,2.876-5.626Zm-33.153,2.376a14.566,14.566,0,0,0-5.334,4.105,8.817,8.817,0,0,0-1.813,5.5,8.447,8.447,0,0,0,.646,3.355,8.152,8.152,0,0,0,1.854,2.709,8.459,8.459,0,0,0,2.876,1.813,10.158,10.158,0,0,0,3.73.646,10.607,10.607,0,0,0,5.376-1.438,20.612,20.612,0,0,0,4.626-3.647Zm1.167-23.13a6.11,6.11,0,0,0-1.729,4.522,8.356,8.356,0,0,0,1.063,4.022,27.534,27.534,0,0,0,3.042,4.355,18.236,18.236,0,0,0,5.793-3.772,6.853,6.853,0,0,0,2.167-4.918,5.634,5.634,0,0,0-1.73-4.313,6.039,6.039,0,0,0-4.272-1.6A5.778,5.778,0,0,0,549.459,37.7Z" transform="translate(-482.089 -27.7)" fill="#fff"/>
      <path id="T-2" data-name="T" d="M315.1,28.6h-4.647L301.6,39.082h17.754v49.3H331.19v-49.3h17.879V28.6Z" transform="translate(-301.6 -28.413)" fill="#fff"/>
    </g>
    <g id="tec-logo-symbol" transform="translate(140 93)">
      <path id="seta_direito" d="M199.518,27.7,194.1,31.722v7.9h0V60.645h0V76.836l8.877-8.877a6.717,6.717,0,0,0,1.959-4.751V60.624h0v-21h0v-7.9Z" transform="translate(-161.593 -27.7)" fill="#ff8500"/>
      <path id="seta_centro" d="M116.1,31.722v7.9h0v21h0v21.63l5.418,5.418,2.584-2.584,2.834-2.834V60.624h0v-21h0v-7.9L121.518,27.7Z" transform="translate(-99.846 -27.7)" fill="#ff8500"/>
      <path id="seta_esquerda" d="M38.1,31.722V63.229a6.79,6.79,0,0,0,1.959,4.751l8.877,8.877V31.722L43.518,27.7Z" transform="translate(-38.1 -27.7)" fill="#ff8500"/>
    </g>
  </g>
</svg>
