<svg xmlns="http://www.w3.org/2000/svg" width="89.208" height="86.193" viewBox="0 0 89.208 86.193">
  <g id="whatsapp-ico" transform="translate(-1704.792 -911)">
    <g id="x" transform="translate(171 42)">
      <circle id="circle" cx="14.5" cy="14.5" r="14.5" transform="translate(1594 869)" fill="#fff"/>
      <line id="x-02" x2="12" y2="12" transform="translate(1603 878)" fill="none" stroke="#ff8500" stroke-width="4"/>
      <line id="x-01" x1="12" y2="12" transform="translate(1603 878)" fill="none" stroke="#ff8500" stroke-width="4"/>
    </g>
    <path id="whatsapp-ballon" d="M107.06,182.1l5.406-20.167a37.327,37.327,0,1,1,14.866,14.735l-20.27,5.43Zm21.278-12.988,1.276.76A30.306,30.306,0,1,0,119.248,159.6l.784,1.286-3.017,11.26Z" transform="translate(1597.732 815.09)" fill="#ff8500"/>
    <path id="whatsapp-telefone" d="M214.807,205.77c-1.534-.918-3.528-1.942-5.333-1.2-1.384.566-2.27,2.736-3.167,3.841a1.325,1.325,0,0,1-1.718.371,24.152,24.152,0,0,1-12.054-10.326,1.476,1.476,0,0,1,.187-2.018,8.134,8.134,0,0,0,2.189-3.554,7.771,7.771,0,0,0-.979-4.207c-.726-1.565-1.539-3.8-3.107-4.683a4.26,4.26,0,0,0-4.622.687,9.393,9.393,0,0,0-3.254,7.435,10.589,10.589,0,0,0,.292,2.36,19.581,19.581,0,0,0,2.262,5.217,41.661,41.661,0,0,0,2.362,3.594,36.474,36.474,0,0,0,10.247,9.515,30.994,30.994,0,0,0,6.39,3.039c2.5.829,4.735,1.689,7.44,1.176A9,9,0,0,0,218.687,212a4.362,4.362,0,0,0,.313-2.56c-.384-1.763-2.773-2.812-4.2-3.665Z" transform="translate(1541.808 758.446)" fill="#ff8500" fill-rule="evenodd"/>
  </g>
</svg>
