<svg xmlns="http://www.w3.org/2000/svg" width="43.043" height="43.148" viewBox="0 0 43.043 43.148">
  <g id="whatsapp-ico" transform="translate(-338 -950.764)">
    <path id="whatsapp-ballon" d="M107.06,149.858l3.094-11.542a21.363,21.363,0,1,1,8.508,8.433l-11.6,3.108Zm12.178-7.433.73.435a17.345,17.345,0,1,0-5.932-5.88l.449.736-1.727,6.444Z" transform="translate(230.94 844.054)" fill="#fff"/>
    <path id="whatsapp-telefone" d="M201.181,196.278c-.878-.525-2.019-1.111-3.052-.688-.792.324-1.3,1.566-1.813,2.2a.759.759,0,0,1-.983.212,13.823,13.823,0,0,1-6.9-5.91.845.845,0,0,1,.107-1.155,4.655,4.655,0,0,0,1.253-2.034,4.448,4.448,0,0,0-.56-2.408c-.416-.9-.881-2.173-1.778-2.68a2.438,2.438,0,0,0-2.645.393,5.376,5.376,0,0,0-1.862,4.255,6.061,6.061,0,0,0,.167,1.351,11.206,11.206,0,0,0,1.295,2.986,23.846,23.846,0,0,0,1.352,2.057,20.875,20.875,0,0,0,5.864,5.446,17.739,17.739,0,0,0,3.657,1.739,8.125,8.125,0,0,0,4.258.673,5.152,5.152,0,0,0,3.86-2.871,2.5,2.5,0,0,0,.179-1.465c-.22-1.009-1.587-1.609-2.4-2.1Z" transform="translate(166.479 778.761)" fill="#fff" fill-rule="evenodd"/>
  </g>
</svg>
